# xmcd
#
# Track frame offsets:
#	150
#	16379
#	34884
#	52443
#	71009
#	92089
#	111541
#	126498
#	142991
#	159798
#	177500
#	190130
#	206441
#	227466
#
# Disc length: 3255 seconds
#
# Revision: 1
# Processed by: cddbd v1.5.2PL0 Copyright (c) Steve Scherf et al.
# Submitted via: EasyCDDAExtractor 12.0.7.1
#
DISCID=ca0cb50e
DTITLE=Giovana Texas - Minha Paixão
DYEAR=1900
DGENRE=
TTITLE0=Minha paixão
TTITLE1=Baby
TTITLE2=Eu só penso em você
TTITLE3=Abra seu coração
TTITLE4=I Love You Baby
TTITLE5=Não se vá
TTITLE6=Se você me quiser
TTITLE7=Lágrimas na madrugada
TTITLE8=Deixa tocar
TTITLE9=Amigo
TTITLE10=Mais que um sonho
TTITLE11=Eu tenho andado tão sozinha
TTITLE12=Amor bandido
TTITLE13=Amantes
EXTD=
EXTT0=
EXTT1=
EXTT2=
EXTT3=
EXTT4=
EXTT5=
EXTT6=
EXTT7=
EXTT8=
EXTT9=
EXTT10=
EXTT11=
EXTT12=
EXTT13=
PLAYORDER=
